<svg width="22" height="24" viewBox="0 0 22 24" fill="none" xmlns="http://www.w3.org/2000/svg">
<g clip-path="url(#clip0_42_941)">
<path fill-rule="evenodd" clip-rule="evenodd" d="M14.5041 3.89624C15.2868 2.88584 15.8801 1.45774 15.6655 0C14.3862 0.088904 12.8909 0.907396 12.0184 1.97424C11.2231 2.9409 10.5694 4.37889 10.8247 5.77454C12.2232 5.81828 13.6666 4.98002 14.5041 3.89624ZM21.4167 17.6086C20.857 18.8561 20.5877 19.4135 19.8667 20.5185C18.8609 22.0609 17.4428 23.9815 15.6837 23.9956C14.1225 24.0125 13.7199 22.9725 11.6004 22.9852C9.4809 22.9965 9.03904 24.0153 7.475 23.9998C5.71739 23.9843 4.37357 22.2514 3.36782 20.709C0.553948 16.3992 0.257972 11.3402 1.99314 8.64908C3.22754 6.73835 5.17453 5.6207 7.00368 5.6207C8.8651 5.6207 10.0364 6.64804 11.578 6.64804C13.0733 6.64804 13.9836 5.61789 16.1368 5.61789C17.7668 5.61789 19.4935 6.51115 20.7223 8.05215C16.6937 10.2733 17.346 16.0606 21.4167 17.6086Z" fill="#20130B"/>
</g>
<defs>
<clipPath id="clip0_42_941">
<rect width="20.5" height="24" fill="white" transform="translate(0.916687)"/>
</clipPath>
</defs>
</svg>
