<svg width="26" height="25" viewBox="0 0 26 25" fill="none" xmlns="http://www.w3.org/2000/svg">
<path d="M14.4922 18.9453L19.375 14.0625L22.1875 16.875L17.3047 21.7578C17.1875 21.875 17.0703 21.9141 16.9531 21.9531L14.1406 22.5C13.9062 22.5781 13.6719 22.3438 13.75 22.1094L14.2969 19.2969C14.3359 19.1797 14.375 19.0625 14.4922 18.9453ZM24.5703 12.5C25.1172 13.0469 25.1172 13.9453 24.5703 14.4922L23.0859 15.9766L20.2734 13.1641L21.7578 11.6797C22.3047 11.1328 23.2031 11.1328 23.75 11.6797L24.5703 12.5Z" fill="#2F4EFF"/>
<path opacity="0.52" d="M8.71094 12.5C5.97656 12.5 3.75 10.2734 3.75 7.5C3.75 4.76562 5.97656 2.5 8.71094 2.5C11.4453 2.5 13.7109 4.76562 13.7109 7.5C13.7109 10.2734 11.4453 12.5 8.71094 12.5ZM10.7031 14.375C12.5391 14.375 14.1797 15.1172 15.3906 16.2891L13.5938 18.0469C13.3203 18.3203 13.1641 18.6719 13.0859 19.0625L12.5 21.8359C12.4609 22.0703 12.4609 22.3047 12.5391 22.5H1.32812C0.585938 22.5 0 21.9141 0 21.1719C0 17.4219 3.00781 14.375 6.75781 14.375H10.7031Z" fill="#2F4EFF"/>
</svg>
