<svg width="24" height="24" viewBox="0 0 24 24" fill="none" xmlns="http://www.w3.org/2000/svg">
<path fill-rule="evenodd" clip-rule="evenodd" d="M5.00542 12C5.00542 11.2205 5.13488 10.4733 5.36593 9.77235L1.32165 6.68399C0.53344 8.28435 0.0893555 10.0876 0.0893555 12C0.0893555 13.9107 0.532894 15.7129 1.32001 17.3122L5.36211 14.2178C5.13324 13.5202 5.00542 12.7756 5.00542 12Z" fill="#FBBC05"/>
<path fill-rule="evenodd" clip-rule="evenodd" d="M12.1064 4.90909C13.7997 4.90909 15.3292 5.50909 16.5309 6.49091L20.0267 3C17.8964 1.14545 15.1653 0 12.1064 0C7.35749 0 3.27606 2.71582 1.32166 6.684L5.36594 9.77236C6.2978 6.94364 8.95412 4.90909 12.1064 4.90909Z" fill="#EB4335"/>
<path fill-rule="evenodd" clip-rule="evenodd" d="M12.1064 19.0909C8.95412 19.0909 6.2978 17.0564 5.36594 14.2276L1.32166 17.3154C3.27606 21.2842 7.35749 24 12.1064 24C15.0375 24 17.8358 22.9593 19.9361 21.0093L16.0972 18.0414C15.014 18.7238 13.6501 19.0909 12.1064 19.0909Z" fill="#34A853"/>
<path fill-rule="evenodd" clip-rule="evenodd" d="M23.5773 12C23.5773 11.2909 23.468 10.5273 23.3041 9.81818H12.1064V14.4545H18.5519C18.2297 16.0353 17.3524 17.2505 16.0972 18.0414L19.9361 21.0093C22.1423 18.9616 23.5773 15.9114 23.5773 12Z" fill="#4285F4"/>
</svg>
