<svg width="53" height="54" viewBox="0 0 53 54" fill="none" xmlns="http://www.w3.org/2000/svg">
<path d="M3 23.9734C3 29.8303 5.32663 35.4473 9.46806 39.5887C13.6095 43.7301 19.2265 46.0568 25.0833 46.0568C30.9402 46.0568 36.5572 43.7301 40.6986 39.5887C44.84 35.4473 47.1667 29.8303 47.1667 23.9734C47.1667 18.1166 44.84 12.4996 40.6986 8.35817C36.5572 4.21674 30.9402 1.89011 25.0833 1.89011C19.2265 1.89011 13.6095 4.21674 9.46806 8.35817C5.32663 12.4996 3 18.1166 3 23.9734Z" fill="#FFE500"/>
<path d="M25.0833 1.89011C20.7157 1.89011 16.4461 3.18527 12.8145 5.61182C9.18291 8.03837 6.35244 11.4873 4.681 15.5225C3.00957 19.5577 2.57224 23.9979 3.42434 28.2817C4.27643 32.5654 6.37966 36.5003 9.46807 39.5887C12.5565 42.6771 16.4914 44.7804 20.7751 45.6325C25.0588 46.4845 29.4991 46.0472 33.5343 44.3758C37.5695 42.7043 41.0184 39.8739 43.445 36.2423C45.8715 32.6107 47.1667 28.3411 47.1667 23.9734C47.1667 18.1166 44.84 12.4996 40.6986 8.35816C36.5572 4.21674 30.9402 1.89011 25.0833 1.89011ZM25.0833 42.7443C21.0978 42.7443 17.2018 41.5624 13.888 39.3482C10.5742 37.134 7.99139 33.9868 6.46621 30.3047C4.94102 26.6226 4.54197 22.5709 5.3195 18.662C6.09703 14.753 8.01623 11.1625 10.8344 8.34429C13.6526 5.52612 17.2432 3.60692 21.1521 2.82939C25.061 2.05185 29.1127 2.45091 32.7948 3.9761C36.4769 5.50128 39.6241 8.08409 41.8383 11.3979C44.0525 14.7117 45.2344 18.6077 45.2344 22.5932C45.2344 27.9376 43.1113 33.0631 39.3323 36.8422C35.5532 40.6212 30.4277 42.7443 25.0833 42.7443Z" fill="#EBCB00"/>
<path d="M18.4584 6.30677C18.4584 6.74604 19.1564 7.16731 20.3988 7.47792C21.6412 7.78852 23.3263 7.96302 25.0834 7.96302C26.8404 7.96302 28.5255 7.78852 29.768 7.47792C31.0104 7.16731 31.7084 6.74604 31.7084 6.30677C31.7084 5.86751 31.0104 5.44623 29.768 5.13562C28.5255 4.82502 26.8404 4.65052 25.0834 4.65052C23.3263 4.65052 21.6412 4.82502 20.3988 5.13562C19.1564 5.44623 18.4584 5.86751 18.4584 6.30677Z" fill="#FFF48C"/>
<path opacity="0.15" d="M7.41663 50.4734C7.41663 50.9127 9.27793 51.334 12.5911 51.6446C15.9042 51.9552 20.3978 52.1297 25.0833 52.1297C29.7688 52.1297 34.2624 51.9552 37.5755 51.6446C40.8887 51.334 42.75 50.9127 42.75 50.4734C42.75 50.0342 40.8887 49.6129 37.5755 49.3023C34.2624 48.9917 29.7688 48.8172 25.0833 48.8172C20.3978 48.8172 15.9042 48.9917 12.5911 49.3023C9.27793 49.6129 7.41663 50.0342 7.41663 50.4734Z" fill="#45413C"/>
<path d="M3 23.9734C3 29.8303 5.32663 35.4473 9.46806 39.5887C13.6095 43.7301 19.2265 46.0568 25.0833 46.0568C30.9402 46.0568 36.5572 43.7301 40.6986 39.5887C44.84 35.4473 47.1667 29.8303 47.1667 23.9734C47.1667 18.1166 44.84 12.4996 40.6986 8.35817C36.5572 4.21674 30.9402 1.89011 25.0833 1.89011C19.2265 1.89011 13.6095 4.21674 9.46806 8.35817C5.32663 12.4996 3 18.1166 3 23.9734V23.9734Z" stroke="#45413C" stroke-width="0.5" stroke-linecap="round" stroke-linejoin="round"/>
<path d="M41.0937 29.4943C41.0937 30.4107 39.857 31.1505 38.3333 31.1505C36.8095 31.1505 35.5729 30.4107 35.5729 29.4943C35.5729 28.5778 36.8095 27.838 38.3333 27.838C39.857 27.838 41.0937 28.5778 41.0937 29.4943Z" fill="#FFAA54"/>
<path d="M9.07288 29.4943C9.07288 30.4107 10.3095 31.1505 11.8333 31.1505C13.357 31.1505 14.5937 30.4107 14.5937 29.4943C14.5937 28.5778 13.357 27.838 11.8333 27.838C10.3095 27.838 9.07288 28.5778 9.07288 29.4943Z" fill="#FFAA54"/>
<path d="M19.5625 34.463H30.6042" stroke="#45413C" stroke-width="0.5" stroke-linecap="round" stroke-linejoin="round"/>
<path d="M16.802 24.5255H10.7291" stroke="#45413C" stroke-width="0.5" stroke-linecap="round" stroke-linejoin="round"/>
<path d="M39.4375 24.5255H33.3646" stroke="#45413C" stroke-width="0.5" stroke-linecap="round" stroke-linejoin="round"/>
</svg>
