<svg width="166" height="166" viewBox="0 0 166 166" fill="none" xmlns="http://www.w3.org/2000/svg">
<path d="M30.0183 129.722C30.0183 134.693 31.9931 139.461 35.5083 142.976C39.0236 146.491 43.7912 148.466 48.7625 148.466C53.7337 148.466 58.5014 146.491 62.0166 142.976C65.5318 139.461 67.5066 134.693 67.5066 129.722C67.5066 124.751 65.5318 119.983 62.0166 116.468C58.5014 112.953 53.7337 110.978 48.7625 110.978C43.7912 110.978 39.0236 112.953 35.5083 116.468C31.9931 119.983 30.0183 124.751 30.0183 129.722Z" fill="#E7EBFF"/>
<path d="M48.7625 122.598C52.7205 122.598 56.5772 123.849 59.782 126.172C62.9867 128.495 65.3756 131.771 66.6075 135.532C67.5892 132.703 67.8799 129.679 67.4553 126.715C67.0308 123.75 65.9034 120.93 64.1671 118.49C62.4308 116.049 60.136 114.06 57.4743 112.687C54.8126 111.314 51.8611 110.598 48.8662 110.598C45.8713 110.598 42.9198 111.314 40.2581 112.687C37.5964 114.06 35.3016 116.049 33.5654 118.49C31.8291 120.93 30.7016 123.75 30.2771 126.715C29.8526 129.679 30.1433 132.703 31.125 135.532C32.3411 131.801 34.6973 128.546 37.8616 126.226C41.0259 123.905 44.8387 122.636 48.7625 122.598Z" fill="#2F4EFF"/>
<path d="M30.0183 129.722C30.0183 134.693 31.9931 139.461 35.5083 142.976C39.0236 146.491 43.7912 148.466 48.7625 148.466C53.7337 148.466 58.5014 146.491 62.0166 142.976C65.5318 139.461 67.5066 134.693 67.5066 129.722C67.5066 124.751 65.5318 119.983 62.0166 116.468C58.5014 112.953 53.7337 110.978 48.7625 110.978C43.7912 110.978 39.0236 112.953 35.5083 116.468C31.9931 119.983 30.0183 124.751 30.0183 129.722V129.722Z" stroke="black" stroke-width="0.5" stroke-linecap="round" stroke-linejoin="round"/>
<path opacity="0.15" d="M21.4417 157.112C21.4417 158.552 26.2002 159.933 34.6704 160.951C43.1407 161.97 54.6288 162.542 66.6075 162.542C78.5862 162.542 90.0743 161.97 98.5446 160.951C107.015 159.933 111.773 158.552 111.773 157.112C111.773 155.672 107.015 154.291 98.5446 153.273C90.0743 152.255 78.5862 151.683 66.6075 151.683C54.6288 151.683 43.1407 152.255 34.6704 153.273C26.2002 154.291 21.4417 155.672 21.4417 157.112Z" fill="black"/>
<path d="M63.5641 104.303C84.9021 125.676 109.664 135.428 118.897 126.402C128.131 117.376 118.137 92.5104 96.7641 71.0688C75.3916 49.6271 50.6646 39.9438 41.4308 48.97C32.1971 57.9963 42.1916 83 63.5641 104.303Z" fill="#E7EBFF"/>
<path d="M39.6325 63.8063C48.7971 54.6417 73.5242 64.5325 94.9658 85.905C108.35 99.2888 117.203 113.987 119.727 125.33C127.267 115.474 117.376 91.7496 96.7642 71.1725C75.4262 49.8 50.6646 40.0475 41.4308 49.0738C37.9725 52.5321 37.2462 58.0654 38.7333 64.8783C38.9938 64.4898 39.2953 64.1304 39.6325 63.8063Z" fill="#2F4EFF"/>
<path d="M63.5641 104.303C84.9021 125.676 109.664 135.428 118.897 126.402C128.131 117.376 118.137 92.5104 96.7641 71.0688C75.3916 49.6271 50.6646 39.9438 41.4308 48.97C32.1971 57.9963 42.1916 83 63.5641 104.303Z" stroke="black" stroke-width="0.5" stroke-linecap="round" stroke-linejoin="round"/>
<path d="M40.3588 112.05L100.292 61.1088C100.852 60.6108 101.582 60.3457 102.331 60.3677C103.08 60.3898 103.793 60.6973 104.323 61.2274C104.853 61.7576 105.161 62.4702 105.183 63.2195C105.205 63.9689 104.94 64.6984 104.442 65.2588L53.6042 125.33L40.3588 112.05Z" fill="#E8F4FA" stroke="black" stroke-width="0.5" stroke-linecap="round" stroke-linejoin="round"/>
<path d="M97.7325 60.1058C97.7325 62.1787 98.5559 64.1667 100.022 65.6325C101.487 67.0982 103.475 67.9217 105.548 67.9217C107.621 67.9217 109.609 67.0982 111.075 65.6325C112.541 64.1667 113.364 62.1787 113.364 60.1058C113.364 58.033 112.541 56.045 111.075 54.5792C109.609 53.1135 107.621 52.29 105.548 52.29C103.475 52.29 101.487 53.1135 100.022 54.5792C98.5559 56.045 97.7325 58.033 97.7325 60.1058Z" fill="#E8F4FA"/>
<path d="M100.015 60.4517C101.486 58.9903 103.475 58.17 105.548 58.17C107.622 58.17 109.611 58.9903 111.082 60.4517C111.824 61.1932 112.412 62.0748 112.811 63.0454C113.291 61.859 113.472 60.5728 113.339 59.2999C113.206 58.0269 112.762 56.8062 112.046 55.7449C111.331 54.6837 110.366 53.8144 109.236 53.2133C108.106 52.6123 106.845 52.298 105.566 52.298C104.286 52.298 103.025 52.6123 101.895 53.2133C100.765 53.8144 99.8003 54.6837 99.0848 55.7449C98.3694 56.8062 97.9256 58.0269 97.7923 59.2999C97.659 60.5728 97.8403 61.859 98.3204 63.0454C98.7065 62.0764 99.2827 61.1945 100.015 60.4517Z" fill="white"/>
<path d="M97.7325 60.1058C97.7325 62.1787 98.5559 64.1667 100.022 65.6325C101.487 67.0982 103.475 67.9217 105.548 67.9217C107.621 67.9217 109.609 67.0982 111.075 65.6325C112.541 64.1667 113.364 62.1787 113.364 60.1058C113.364 58.033 112.541 56.045 111.075 54.5792C109.609 53.1135 107.621 52.29 105.548 52.29C103.475 52.29 101.487 53.1135 100.022 54.5792C98.5559 56.045 97.7325 58.033 97.7325 60.1058Z" stroke="black" stroke-width="0.5" stroke-linecap="round" stroke-linejoin="round"/>
<path d="M63.5641 104.303C42.1916 82.9654 32.4391 58.2038 41.4654 48.97C27.6666 62.9763 25.2458 99.1504 46.9641 121.042C68.6825 142.933 104.822 140.547 118.828 126.54C109.664 135.567 84.9021 125.676 63.5641 104.303Z" fill="#E8F4FA"/>
<path d="M44.1629 78.7463C37.2463 65.985 35.8975 54.5379 41.4654 49.1429C28.5313 62.0771 25.6608 94.1012 42.745 116.096C39.1166 103.827 39.6147 90.7054 44.1629 78.7463Z" fill="white"/>
<path d="M63.5641 104.303C42.1916 82.9654 32.4391 58.2038 41.4654 48.97C27.6666 62.9763 25.2458 99.1504 46.9641 121.042C68.6825 142.933 104.822 140.547 118.828 126.54C109.664 135.567 84.9021 125.676 63.5641 104.303Z" stroke="black" stroke-width="0.5" stroke-linecap="round" stroke-linejoin="round"/>
<path d="M70.7575 151.06C70.2676 149.837 69.4229 148.788 68.3321 148.048C67.2413 147.309 65.9541 146.912 64.6362 146.91H32.9233C31.6054 146.912 30.3183 147.309 29.2275 148.048C28.1367 148.788 27.292 149.837 26.8021 151.06C26.6369 151.466 26.5746 151.907 26.6207 152.343C26.6667 152.779 26.8197 153.197 27.0661 153.559C27.3124 153.922 27.6445 154.218 28.0328 154.422C28.4211 154.625 28.8537 154.73 29.2921 154.726H68.2675C68.7029 154.721 69.1308 154.612 69.5146 154.406C69.8983 154.2 70.2266 153.904 70.4713 153.544C70.7159 153.184 70.8698 152.77 70.9196 152.337C70.9695 151.905 70.9138 151.466 70.7575 151.06Z" fill="#ADC4D9"/>
<path d="M32.9233 150.818H64.6363C65.7451 150.83 66.8325 151.126 67.7949 151.676C68.7574 152.227 69.5629 153.015 70.135 153.965C70.5118 153.595 70.7716 153.122 70.8822 152.606C70.9929 152.09 70.9495 151.552 70.7575 151.06C70.2676 149.837 69.4229 148.788 68.3321 148.048C67.2413 147.309 65.9542 146.912 64.6363 146.91H32.9233C31.6055 146.912 30.3183 147.309 29.2275 148.048C28.1367 148.788 27.292 149.837 26.8021 151.06C26.6058 151.549 26.5569 152.084 26.6613 152.6C26.7658 153.117 27.0191 153.591 27.39 153.965C27.9677 153.012 28.7792 152.223 29.7477 151.672C30.7161 151.122 31.8093 150.827 32.9233 150.818Z" fill="#C4CCFB"/>
<path d="M70.7575 151.06C70.2676 149.837 69.4229 148.788 68.3321 148.048C67.2413 147.309 65.9541 146.912 64.6363 146.91H32.9233C31.6054 146.912 30.3183 147.309 29.2275 148.048C28.1367 148.788 27.292 149.837 26.8021 151.06C26.6369 151.466 26.5746 151.907 26.6207 152.343C26.6667 152.779 26.8197 153.197 27.0661 153.559C27.3124 153.922 27.6445 154.218 28.0328 154.422C28.4211 154.625 28.8537 154.73 29.2921 154.726H68.2675C68.7029 154.721 69.1308 154.612 69.5146 154.406C69.8983 154.2 70.2266 153.904 70.4713 153.544C70.7159 153.184 70.8698 152.77 70.9196 152.337C70.9695 151.905 70.9138 151.466 70.7575 151.06Z" stroke="black" stroke-width="0.5" stroke-linecap="round" stroke-linejoin="round"/>
<path d="M111.773 37.5921C116.182 37.6012 120.408 39.3567 123.526 42.4744C126.643 45.592 128.399 49.8177 128.408 54.2267" stroke="#314AD9" stroke-width="0.5" stroke-linecap="round" stroke-linejoin="round"/>
<path d="M111.773 24.2083C119.721 24.2537 127.33 27.4309 132.949 33.0507C138.569 38.6704 141.746 46.2793 141.792 54.2267" stroke="#314AD9" stroke-width="0.5" stroke-linecap="round" stroke-linejoin="round"/>
<path d="M111.773 8.64584C123.862 8.64584 135.456 13.4481 144.004 21.9962C152.552 30.5442 157.354 42.1379 157.354 54.2267" stroke="#314AD9" stroke-width="0.5" stroke-linecap="round" stroke-linejoin="round"/>
</svg>
