<svg width="54" height="53" viewBox="0 0 54 53" fill="none" xmlns="http://www.w3.org/2000/svg">
<g clip-path="url(#clip0_90_924)">
<path d="M1.15515 23.0833C1.15515 28.9402 3.48178 34.5572 7.62321 38.6986C11.7646 42.84 17.3816 45.1667 23.2385 45.1667C29.0954 45.1667 34.7123 42.84 38.8538 38.6986C42.9952 34.5572 45.3218 28.9402 45.3218 23.0833C45.3218 17.2265 42.9952 11.6095 38.8538 7.46806C34.7123 3.32663 29.0954 1 23.2385 1C17.3816 1 11.7646 3.32663 7.62321 7.46806C3.48178 11.6095 1.15515 17.2265 1.15515 23.0833Z" fill="#FFE500"/>
<path d="M23.2385 1C18.8708 1 14.6012 2.29516 10.9697 4.72171C7.33807 7.14826 4.50759 10.5972 2.83615 14.6324C1.16472 18.6676 0.727396 23.1078 1.57949 27.3916C2.43158 31.6753 4.53481 35.6102 7.62322 38.6986C10.7116 41.787 14.6465 43.8903 18.9303 44.7423C23.214 45.5944 27.6542 45.1571 31.6894 43.4857C35.7246 41.8142 39.1736 38.9838 41.6001 35.3522C44.0267 31.7206 45.3218 27.451 45.3218 23.0833C45.3218 17.2265 42.9952 11.6095 38.8538 7.46806C34.7123 3.32663 29.0954 1 23.2385 1ZM23.2385 41.8542C19.253 41.8542 15.357 40.6723 12.0432 38.4581C8.72935 36.2439 6.14654 33.0967 4.62136 29.4146C3.09618 25.7325 2.69712 21.6808 3.47465 17.7719C4.25218 13.8629 6.17138 10.2724 8.98956 7.45419C11.8077 4.63601 15.3983 2.71681 19.3072 1.93928C23.2161 1.16175 27.2678 1.56081 30.95 3.08599C34.6321 4.61117 37.7792 7.19398 39.9935 10.5078C42.2077 13.8216 43.3895 17.7176 43.3895 21.7031C43.3895 27.0475 41.2665 32.173 37.4874 35.9521C33.7084 39.7311 28.5829 41.8542 23.2385 41.8542Z" fill="#EBCB00"/>
<path d="M16.6135 5.41666C16.6135 5.63417 16.7848 5.84954 17.1178 6.05048C17.4507 6.25143 17.9387 6.43401 18.5539 6.58781C19.1691 6.74161 19.8994 6.86361 20.7032 6.94684C21.507 7.03007 22.3685 7.07291 23.2385 7.07291C24.1085 7.07291 24.97 7.03007 25.7737 6.94684C26.5775 6.86361 27.3079 6.74161 27.923 6.58781C28.5382 6.43401 29.0262 6.25143 29.3592 6.05048C29.6921 5.84954 29.8635 5.63417 29.8635 5.41666C29.8635 5.19916 29.6921 4.98379 29.3592 4.78284C29.0262 4.5819 28.5382 4.39932 27.923 4.24552C27.3079 4.09172 26.5775 3.96972 25.7737 3.88649C24.97 3.80325 24.1085 3.76041 23.2385 3.76041C22.3685 3.76041 21.507 3.80325 20.7032 3.88649C19.8994 3.96972 19.1691 4.09172 18.5539 4.24552C17.9387 4.39932 17.4507 4.5819 17.1178 4.78284C16.7848 4.98379 16.6135 5.19916 16.6135 5.41666Z" fill="#FFF48C"/>
<path opacity="0.15" d="M5.57184 49.5833C5.57184 50.0226 7.43314 50.4439 10.7463 50.7545C14.0594 51.0651 18.553 51.2396 23.2385 51.2396C27.924 51.2396 32.4176 51.0651 35.7307 50.7545C39.0439 50.4439 40.9052 50.0226 40.9052 49.5833C40.9052 49.1441 39.0439 48.7228 35.7307 48.4122C32.4176 48.1016 27.924 47.9271 23.2385 47.9271C18.553 47.9271 14.0594 48.1016 10.7463 48.4122C7.43314 48.7228 5.57184 49.1441 5.57184 49.5833Z" fill="#45413C"/>
<path d="M1.15515 23.0833C1.15515 28.9402 3.48178 34.5572 7.62321 38.6986C11.7646 42.84 17.3816 45.1667 23.2385 45.1667C29.0954 45.1667 34.7123 42.84 38.8538 38.6986C42.9952 34.5572 45.3218 28.9402 45.3218 23.0833C45.3218 17.2265 42.9952 11.6095 38.8538 7.46806C34.7123 3.32663 29.0954 1 23.2385 1C17.3816 1 11.7646 3.32663 7.62321 7.46806C3.48178 11.6095 1.15515 17.2265 1.15515 23.0833V23.0833Z" stroke="#45413C" stroke-width="0.5" stroke-linecap="round" stroke-linejoin="round"/>
<path d="M39.2489 28.6042C39.2489 29.5206 38.0123 30.2604 36.4885 30.2604C34.9648 30.2604 33.7281 29.5206 33.7281 28.6042C33.7281 27.6877 34.9648 26.9479 36.4885 26.9479C38.0123 26.9479 39.2489 27.6877 39.2489 28.6042Z" fill="#FFAA54"/>
<path d="M7.22809 28.6042C7.22809 29.5206 8.46476 30.2604 9.98851 30.2604C11.5123 30.2604 12.7489 29.5206 12.7489 28.6042C12.7489 27.6877 11.5123 26.9479 9.98851 26.9479C8.46476 26.9479 7.22809 27.6877 7.22809 28.6042Z" fill="#FFAA54"/>
<path d="M7.78015 24.4635C7.78015 23.9511 7.98373 23.4596 8.34611 23.0972C8.70848 22.7348 9.19997 22.5312 9.71244 22.5312C10.2249 22.5312 10.7164 22.7348 11.0788 23.0972C11.4412 23.4596 11.6447 23.9511 11.6447 24.4635" stroke="#45413C" stroke-width="0.5" stroke-linecap="round" stroke-linejoin="round"/>
<path d="M34.8323 24.4635C34.8323 23.9511 35.0359 23.4596 35.3982 23.0972C35.7606 22.7348 36.2521 22.5313 36.7646 22.5312C37.277 22.5313 37.7685 22.7348 38.1309 23.0972C38.4933 23.4596 38.6969 23.9511 38.6969 24.4635" stroke="#45413C" stroke-width="0.5" stroke-linecap="round" stroke-linejoin="round"/>
<path d="M47.7179 33.2085L52.7308 31.5302C52.8231 31.4973 52.9029 31.4367 52.9593 31.3566C53.0158 31.2765 53.0461 31.181 53.0461 31.083C53.0461 30.9851 53.0158 30.8895 52.9593 30.8095C52.9029 30.7294 52.8231 30.6687 52.7308 30.6358L48.6123 29.2667C48.3323 29.1717 48.0785 29.0123 47.8714 28.8014C47.6643 28.5904 47.5096 28.3338 47.4198 28.0521L46.0506 23.9335C46.0168 23.8404 45.9553 23.7597 45.8744 23.7025C45.7935 23.6453 45.697 23.6142 45.5979 23.6133C45.4999 23.6132 45.4043 23.6441 45.325 23.7016C45.2456 23.7592 45.1866 23.8403 45.1562 23.9335L43.776 28.0521C43.684 28.3362 43.526 28.5944 43.3148 28.8055C43.1037 29.0166 42.8455 29.1747 42.5614 29.2667L38.4429 30.6358C38.3506 30.6687 38.2708 30.7294 38.2144 30.8095C38.1579 30.8895 38.1276 30.9851 38.1276 31.083C38.1276 31.181 38.1579 31.2765 38.2144 31.3566C38.2708 31.4367 38.3506 31.4973 38.4429 31.5302L42.5614 32.9104C42.839 33.0032 43.0913 33.1592 43.2982 33.3661C43.5052 33.5731 43.6612 33.8253 43.7539 34.1029L45.1341 38.2215C45.1645 38.3147 45.2236 38.3958 45.3029 38.4534C45.3823 38.5109 45.4778 38.5418 45.5758 38.5417C45.6749 38.5408 45.7714 38.5097 45.8523 38.4525C45.9332 38.3953 45.9947 38.3146 46.0285 38.2215L47.7179 33.2085Z" fill="white" stroke="#45413C" stroke-width="0.5" stroke-linecap="round" stroke-linejoin="round"/>
<path d="M23.2385 39.701C33.3968 39.701 34.7549 35.461 34.1587 31.9719C34.0306 31.4504 33.7925 30.9624 33.4603 30.5405C33.1282 30.1187 32.7096 29.7727 32.2327 29.5259C31.7559 29.2791 31.2317 29.1372 30.6955 29.1096C30.1593 29.082 29.6233 29.1695 29.1237 29.366C27.2265 29.9976 25.2379 30.311 23.2385 30.2935C21.239 30.311 19.2504 29.9976 17.3533 29.366C16.8536 29.1695 16.3177 29.082 15.7814 29.1096C15.2452 29.1372 14.7211 29.2791 14.2442 29.5259C13.7673 29.7727 13.3488 30.1187 13.0166 30.5405C12.6844 30.9624 12.4463 31.4504 12.3183 31.9719C11.722 35.461 13.0801 39.701 23.2385 39.701Z" fill="white" stroke="#45413C" stroke-width="0.5" stroke-linecap="round" stroke-linejoin="round"/>
<path d="M34.2581 32.7779C32.6441 33.5149 30.9342 34.0204 29.1789 34.2796C27.2149 34.5959 25.2278 34.7473 23.2385 34.7323C21.2492 34.7473 19.2621 34.5959 17.2981 34.2796C15.5428 34.0204 13.8329 33.5149 12.2189 32.7779" stroke="#45413C" stroke-width="0.5" stroke-linecap="round" stroke-linejoin="round"/>
<path d="M18.0269 29.5869L17.2981 34.2796L16.6025 38.7956" stroke="#45413C" stroke-width="0.5" stroke-linecap="round" stroke-linejoin="round"/>
<path d="M23.2385 39.701V30.3156" stroke="#45413C" stroke-width="0.5" stroke-linecap="round" stroke-linejoin="round"/>
<path d="M28.4612 29.5869L29.1789 34.2796L29.8745 38.7956" stroke="#45413C" stroke-width="0.5" stroke-linecap="round" stroke-linejoin="round"/>
</g>
<defs>
<clipPath id="clip0_90_924">
<rect width="53" height="53" fill="white" transform="translate(0.155151)"/>
</clipPath>
</defs>
</svg>
