<svg width="147" height="145" viewBox="0 0 147 145" fill="none" xmlns="http://www.w3.org/2000/svg">
<path d="M59.3206 79.025L14.4856 96.6667C12.9544 97.3011 10.2594 94.5521 8.36061 90.625C6.46186 86.6979 6.27812 82.7406 7.77874 82.0761L51.1744 60.9302L59.3206 79.025Z" fill="#E8F4FA"/>
<path d="M8.02375 89.4167C6.58438 85.7615 6.4925 82.499 8.02375 81.8948L51.1744 60.9302L54.2369 67.8781L8.02375 89.4167Z" fill="white"/>
<path d="M59.3206 79.025L14.4856 96.6667C12.9544 97.3011 10.2594 94.5521 8.36061 90.625C6.46186 86.6979 6.27812 82.7406 7.77874 82.0761L51.1744 60.9302L59.3206 79.025Z" stroke="#45413C" stroke-width="0.5" stroke-linecap="round" stroke-linejoin="round"/>
<path d="M137.476 50.7198L60.3619 81.3813C58.0344 82.3782 53.8388 78.1188 51.0213 71.8354C48.2038 65.5521 47.8056 59.7521 50.1331 58.6042L124.95 22.8375L137.476 50.7198Z" fill="#E8F4FA"/>
<path d="M50.2556 69.9625C48.1425 64.4042 48.02 59.5104 50.2556 58.6042L124.95 22.8375L129.482 32.9573L50.2556 69.9625Z" fill="white"/>
<path d="M137.476 50.7198L60.3619 81.3813C58.0344 82.3782 53.8388 78.1188 51.0213 71.8354C48.2038 65.5521 47.8056 59.7521 50.1331 58.6042L124.95 22.8375L137.476 50.7198Z" stroke="#45413C" stroke-width="0.5" stroke-linecap="round" stroke-linejoin="round"/>
<path opacity="0.15" d="M121.336 128.839C121.336 130.321 115.764 131.742 105.845 132.79C95.9266 133.838 82.474 134.427 68.4469 134.427C54.4197 134.427 40.9671 133.838 31.0484 132.79C21.1298 131.742 15.5575 130.321 15.5575 128.839C15.5575 127.356 21.1298 125.935 31.0484 124.887C40.9671 123.839 54.4197 123.25 68.4469 123.25C82.474 123.25 95.9266 123.839 105.845 124.887C115.764 125.935 121.336 127.356 121.336 128.839Z" fill="#45413C"/>
<path d="M105.319 32.2323L124.95 22.8375L137.476 50.7198L117.233 58.7552C114.507 59.9636 109.638 54.9792 106.361 47.6386C103.084 40.2979 102.594 33.4104 105.319 32.2323Z" fill="#656769"/>
<path d="M104.492 42.4729C103.022 37.2167 103.237 32.9573 105.319 32.051L124.95 22.6562L128.839 31.326L104.492 42.4729Z" fill="#87898C"/>
<path d="M105.319 32.2323L124.95 22.8375L137.476 50.7198L117.233 58.7552C114.507 59.9636 109.638 54.9792 106.361 47.6386C103.084 40.2979 102.594 33.4104 105.319 32.2323Z" stroke="#45413C" stroke-width="0.5" stroke-linecap="round" stroke-linejoin="round"/>
<path d="M137.487 50.7597C136.114 51.3602 134.136 50.4666 131.99 48.2757C129.843 46.0847 127.704 42.7757 126.042 39.0767C124.38 35.3777 123.332 31.5916 123.128 28.5514C122.925 25.5112 123.582 23.4659 124.956 22.8654C126.33 22.2649 128.307 23.1585 130.454 25.3494C132.6 27.5404 134.74 30.8494 136.402 34.5484C138.063 38.2474 139.111 42.0335 139.315 45.0737C139.519 48.1139 138.861 50.1592 137.487 50.7597Z" fill="#2F4EFF"/>
<path d="M136.404 43.1979C132.943 35.525 127.829 30.2084 124.95 31.5375C124.45 31.7763 124.042 32.1685 123.786 32.6552C122.5 27.6709 122.929 23.7438 124.95 22.8375C127.829 21.599 132.943 26.825 136.404 34.5281C139.282 40.9323 140.109 47.0344 138.639 49.6323C138.079 47.4294 137.331 45.277 136.404 43.1979Z" fill="#1329A4"/>
<path d="M137.487 50.7597C136.114 51.3602 134.136 50.4666 131.99 48.2757C129.843 46.0847 127.704 42.7757 126.042 39.0767C124.38 35.3777 123.332 31.5916 123.128 28.5514C122.925 25.5112 123.582 23.4659 124.956 22.8654C126.33 22.2649 128.307 23.1585 130.454 25.3494C132.6 27.5404 134.74 30.8494 136.402 34.5484C138.063 38.2474 139.111 42.0335 139.315 45.0737C139.519 48.1139 138.861 50.1592 137.487 50.7597V50.7597Z" stroke="#45413C" stroke-width="0.5" stroke-linecap="round" stroke-linejoin="round"/>
<path d="M50.1331 58.6042L58.3712 54.6771C55.9825 55.7042 56.3806 61.7761 59.2593 68.2406C62.1381 74.7052 66.4562 79.0552 68.845 77.9979L60.3618 81.3813C58.0343 82.3781 53.8387 78.1188 51.0212 71.8354C48.2037 65.5521 47.8056 59.6313 50.1331 58.6042Z" fill="#656769"/>
<path d="M57.5137 63.4375L49.2756 67.0927C48.1731 62.8333 48.4181 59.45 50.1331 58.6948L58.3712 54.7677C56.595 55.4323 56.35 58.9667 57.5137 63.4375Z" fill="#87898C"/>
<path d="M50.1331 58.6042L58.3712 54.6771C55.9825 55.7042 56.3806 61.7761 59.2593 68.2406C62.1381 74.7052 66.4562 79.0552 68.845 77.9979L60.3618 81.3813C58.0343 82.3781 53.8387 78.1188 51.0212 71.8354C48.2037 65.5521 47.8056 59.6313 50.1331 58.6042Z" stroke="#45413C" stroke-width="0.5" stroke-linecap="round" stroke-linejoin="round"/>
<path d="M7.87067 81.8948L14.8225 78.5417C13.2607 79.2365 13.5363 83.1938 15.4044 87.3927C17.2725 91.5917 20.09 94.4615 21.5294 93.7667C21.5294 93.7667 14.3325 96.5761 14.3325 96.6063C12.8013 97.2406 10.1063 94.4917 8.20755 90.5646C6.3088 86.6375 6.37005 82.5594 7.87067 81.8948Z" fill="#656769"/>
<path d="M14.3019 84.3719L7.38063 87.3927C6.61501 84.5834 6.73751 82.3177 7.87063 81.8042L14.8225 78.5417C13.6588 79.0552 13.5056 81.5625 14.3019 84.3719Z" fill="#87898C"/>
<path d="M7.87067 81.8948L14.8225 78.5417C13.2607 79.2365 13.5363 83.1938 15.4044 87.3927C17.2725 91.5917 20.09 94.4615 21.5294 93.7667C21.5294 93.7667 14.3325 96.5761 14.3325 96.6063C12.8013 97.2406 10.1063 94.4917 8.20755 90.5646C6.3088 86.6375 6.37005 82.5594 7.87067 81.8948Z" stroke="#45413C" stroke-width="0.5" stroke-linecap="round" stroke-linejoin="round"/>
<path d="M81.1256 79.5083H73.1019V91.924H81.1256V79.5083Z" fill="#E8F4FA"/>
<path d="M81.1256 79.5083H73.1019V85.0365H81.1256V79.5083Z" fill="#2F4EFF"/>
<path d="M81.1256 79.5083H73.1019V91.924H81.1256V79.5083Z" stroke="#45413C" stroke-width="0.5" stroke-linecap="round" stroke-linejoin="round"/>
<path d="M92.2731 129.292C91.4488 129.287 90.6489 129.015 89.9962 128.518C89.3434 128.022 88.8738 127.328 88.6594 126.543L79.4719 91.924H84.5556C85.3985 91.9191 86.2187 92.1933 86.885 92.7026C87.5512 93.212 88.025 93.927 88.2306 94.7333L95.9175 124.7C96.0516 125.245 96.0588 125.813 95.9385 126.362C95.8182 126.91 95.5735 127.425 95.2228 127.867C94.8722 128.308 94.4246 128.666 93.9137 128.913C93.4029 129.16 92.842 129.289 92.2731 129.292Z" fill="#E8F4FA"/>
<path d="M88.2306 94.7333L91.0175 105.729H83.0856L79.4413 92.0448H84.5556C85.3824 92.0329 86.1902 92.2898 86.8544 92.7756C87.5185 93.2615 88.0022 93.9495 88.2306 94.7333Z" fill="#2F4EFF"/>
<path d="M92.2731 129.292C91.4488 129.287 90.6489 129.015 89.9962 128.518C89.3434 128.022 88.8738 127.328 88.6594 126.543L79.4719 91.924H84.5556C85.3985 91.9191 86.2187 92.1933 86.885 92.7026C87.5512 93.212 88.025 93.927 88.2306 94.7333L95.9175 124.7C96.0516 125.245 96.0588 125.813 95.9385 126.362C95.8182 126.91 95.5735 127.425 95.2228 127.867C94.8722 128.308 94.4246 128.666 93.9137 128.913C93.4029 129.16 92.842 129.289 92.2731 129.292V129.292Z" stroke="#45413C" stroke-width="0.5" stroke-linecap="round" stroke-linejoin="round"/>
<path d="M61.9544 129.292C62.78 129.292 63.5824 129.022 64.2362 128.525C64.89 128.027 65.3583 127.33 65.5681 126.543L74.7556 91.924H69.6412C68.8022 91.9206 67.9864 92.1959 67.3254 92.7055C66.6643 93.2152 66.1963 93.9295 65.9969 94.7334L58.1875 124.7C58.0441 125.256 58.0341 125.837 58.1585 126.397C58.2829 126.958 58.5381 127.482 58.9039 127.927C59.2696 128.373 59.7359 128.729 60.2654 128.966C60.795 129.202 61.3733 129.314 61.9544 129.292Z" fill="#E8F4FA"/>
<path d="M66.0275 94.7334L63.2406 105.608H71.1419L74.7863 91.924H69.6719C68.8328 91.9206 68.0171 92.1959 67.356 92.7055C66.6949 93.2152 66.2269 93.9295 66.0275 94.7334Z" fill="#2F4EFF"/>
<path d="M61.9544 129.292C62.78 129.292 63.5824 129.022 64.2362 128.525C64.89 128.027 65.3583 127.33 65.5681 126.543L74.7556 91.924H69.6412C68.8022 91.9206 67.9864 92.1959 67.3254 92.7055C66.6643 93.2152 66.1963 93.9295 65.9969 94.7334L58.1875 124.7C58.0441 125.256 58.0341 125.837 58.1585 126.397C58.2829 126.958 58.5381 127.482 58.9039 127.927C59.2696 128.373 59.7359 128.729 60.2654 128.966C60.795 129.202 61.3733 129.314 61.9544 129.292V129.292Z" stroke="#45413C" stroke-width="0.5" stroke-linecap="round" stroke-linejoin="round"/>
<path d="M64.7718 99.6875H89.4862L88.2306 94.824C88.025 94.0176 87.5512 93.3026 86.8849 92.7933C86.2187 92.2839 85.3985 92.0098 84.5556 92.0146H69.6718C68.8342 92.0165 68.0211 92.2938 67.361 92.8026C66.701 93.3114 66.2318 94.0227 66.0275 94.824L64.7718 99.6875Z" fill="#656769" stroke="#45413C" stroke-width="0.5" stroke-linecap="round" stroke-linejoin="round"/>
<path d="M58.9838 63.8906C59.3809 63.514 59.8503 63.2194 60.3645 63.0243C60.8786 62.8291 61.4271 62.7373 61.9778 62.7542C62.5284 62.7711 63.0701 62.8963 63.5709 63.1226C64.0718 63.3489 64.5218 63.6716 64.8944 64.0719C66.8484 66.1538 69.2168 67.8159 71.8515 68.9542C74.4862 70.0925 77.3306 70.6825 80.2069 70.6875H90.1294V74.7052C90.1294 75.9791 89.6164 77.2008 88.7032 78.1015C87.79 79.0023 86.5515 79.5083 85.26 79.5083H81.1256C76.8859 79.502 72.6962 78.6042 68.8359 76.8749C64.9756 75.1455 61.5334 72.6242 58.7388 69.4792C58.0497 68.6924 57.6913 67.6757 57.7368 66.6369C57.7823 65.5982 58.2284 64.6158 58.9838 63.8906Z" fill="#656769"/>
<path d="M58.9838 63.8906C59.3809 63.514 59.8503 63.2194 60.3644 63.0243C60.8786 62.8291 61.4271 62.7373 61.9777 62.7542C62.5284 62.7711 63.07 62.8963 63.5709 63.1226C64.0718 63.3489 64.5217 63.6716 64.8944 64.0719C65.5738 64.7924 66.3002 65.4685 67.0688 66.0958C66.7018 66.2816 66.3619 66.5153 66.0581 66.7906C65.267 67.5208 64.7981 68.5282 64.7523 69.5959C64.7065 70.6637 65.0874 71.7065 65.8131 72.5C67.9415 74.9024 70.4556 76.9435 73.255 78.5417C67.6155 77.0003 62.5646 73.8471 58.7388 69.4792C58.0497 68.6924 57.6912 67.6757 57.7368 66.6369C57.7823 65.5982 58.2284 64.6158 58.9838 63.8906Z" fill="#87898C"/>
<path d="M58.9838 63.8906C59.3809 63.514 59.8503 63.2194 60.3645 63.0243C60.8786 62.8291 61.4271 62.7373 61.9778 62.7542C62.5284 62.7711 63.0701 62.8963 63.5709 63.1226C64.0718 63.3489 64.5218 63.6716 64.8944 64.0719C66.8484 66.1538 69.2168 67.8159 71.8515 68.9542C74.4862 70.0925 77.3306 70.6825 80.2069 70.6875H90.1294V74.7052C90.1294 75.9791 89.6164 77.2008 88.7032 78.1015C87.79 79.0023 86.5515 79.5083 85.26 79.5083H81.1256C76.8859 79.502 72.6962 78.6042 68.8359 76.8749C64.9756 75.1455 61.5334 72.6242 58.7388 69.4792C58.0497 68.6924 57.6913 67.6757 57.7368 66.6369C57.7823 65.5982 58.2284 64.6158 58.9838 63.8906V63.8906Z" stroke="#45413C" stroke-width="0.5" stroke-linecap="round" stroke-linejoin="round"/>
</svg>
