<svg width="28" height="28" viewBox="0 0 28 28" fill="none" xmlns="http://www.w3.org/2000/svg">
<path opacity="0.15" d="M6.70831 26.5417C6.70831 26.7737 7.47654 26.9963 8.84399 27.1604C10.2114 27.3245 12.0661 27.4167 14 27.4167C15.9338 27.4167 17.7885 27.3245 19.156 27.1604C20.5234 26.9963 21.2916 26.7737 21.2916 26.5417C21.2916 26.3096 20.5234 26.087 19.156 25.9229C17.7885 25.7588 15.9338 25.6667 14 25.6667C12.0661 25.6667 10.2114 25.7588 8.84399 25.9229C7.47654 26.087 6.70831 26.3096 6.70831 26.5417Z" fill="#45413C"/>
<path d="M19.5183 11.235L19.4425 13.1367L12.8975 6.58582C12.6423 6.31586 12.2966 6.14937 11.9265 6.11817C11.5563 6.08696 11.1876 6.19322 10.8908 6.41665C10.7324 6.54492 10.6027 6.70509 10.5103 6.88676C10.4178 7.06843 10.3646 7.26753 10.3542 7.47111C10.3437 7.67469 10.3762 7.87819 10.4496 8.06837C10.523 8.25856 10.6355 8.43117 10.78 8.57499L9.85251 7.64749C9.5694 7.35273 9.1851 7.17621 8.77703 7.15348C8.36897 7.13075 7.96744 7.2635 7.65334 7.52499C7.4965 7.66648 7.37007 7.83841 7.28176 8.0303C7.19344 8.22219 7.14509 8.43005 7.13963 8.64122C7.13417 8.85239 7.17173 9.06246 7.25002 9.25866C7.3283 9.45486 7.44568 9.63308 7.59501 9.78249L7.58334 9.75332C7.3599 9.52536 7.06857 9.37598 6.75305 9.3276C6.43753 9.27922 6.11482 9.33444 5.83334 9.48499C5.63838 9.59608 5.47167 9.75067 5.34621 9.93671C5.22075 10.1228 5.13992 10.3353 5.11 10.5576C5.08009 10.78 5.1019 11.0063 5.17373 11.2189C5.24557 11.4315 5.3655 11.6247 5.52418 11.7833L7.27418 13.5333C7.14807 13.4074 6.997 13.3092 6.83069 13.2452C6.66438 13.1811 6.48651 13.1526 6.30851 13.1614C6.1305 13.1702 5.95631 13.2161 5.79712 13.2962C5.63793 13.3764 5.49727 13.4889 5.38418 13.6267C5.19099 13.8856 5.09866 14.206 5.12442 14.528C5.15018 14.8501 5.29228 15.1517 5.52418 15.3767L12.8333 22.75C13.3452 23.2643 13.9542 23.6718 14.6249 23.9488C15.2956 24.2257 16.0146 24.3667 16.7402 24.3634C17.4659 24.3602 18.1836 24.2128 18.8518 23.9298C19.52 23.6468 20.1253 23.2339 20.6325 22.715C21.4327 21.8799 22.0528 20.8892 22.4542 19.8044C22.8555 18.7197 23.0297 17.564 22.9658 16.4092L22.75 9.33332C22.7382 9.17445 22.6667 9.02595 22.5498 8.91772C22.4329 8.80948 22.2793 8.74955 22.12 8.74999C21.4493 8.74787 20.8039 9.00542 20.3189 9.46867C19.8339 9.93192 19.547 10.5649 19.5183 11.235Z" fill="#FFE500"/>
<path d="M19.4425 13.1367L12.8975 6.58582C12.6423 6.31586 12.2966 6.14937 11.9264 6.11817C11.5563 6.08696 11.1876 6.19322 10.8908 6.41665C10.7433 6.5365 10.6208 6.68424 10.5304 6.85143C10.44 7.01862 10.3835 7.20199 10.364 7.39106C10.3445 7.58012 10.3624 7.77117 10.4168 7.9533C10.4711 8.13542 10.5609 8.30505 10.6808 8.45249C10.7401 8.37083 10.8108 8.29813 10.8908 8.23665C11.1862 8.01177 11.5541 7.90352 11.9242 7.93257C12.2943 7.96162 12.6408 8.12594 12.8975 8.39415L18.5325 14.035L19.4425 13.1367Z" fill="#FFF48C"/>
<path d="M22.8025 11.1533L22.75 9.33334C22.7382 9.17447 22.6666 9.02597 22.5497 8.91773C22.4328 8.8095 22.2793 8.74956 22.12 8.75C21.4474 8.74957 20.8009 9.01021 20.3167 9.47702C19.8324 9.94382 19.5483 10.5804 19.5241 11.2525L19.4483 13.1542L19.5241 13.0725C19.5498 12.4008 19.8343 11.7652 20.3182 11.2986C20.8021 10.8321 21.4478 10.571 22.12 10.57C22.285 10.5683 22.4452 10.6264 22.5706 10.7336C22.6961 10.8409 22.7785 10.99 22.8025 11.1533Z" fill="#FFF48C"/>
<path d="M19.5183 11.235L19.4425 13.1367L12.8975 6.58582C12.6423 6.31586 12.2966 6.14937 11.9265 6.11817C11.5563 6.08696 11.1876 6.19322 10.8908 6.41665C10.7324 6.54492 10.6027 6.70509 10.5103 6.88676C10.4178 7.06843 10.3646 7.26753 10.3542 7.47111C10.3437 7.67469 10.3762 7.87819 10.4496 8.06837C10.523 8.25856 10.6355 8.43117 10.78 8.57499L9.85251 7.64749C9.5694 7.35273 9.1851 7.17621 8.77703 7.15348C8.36897 7.13075 7.96744 7.2635 7.65334 7.52499C7.4965 7.66648 7.37007 7.83841 7.28176 8.0303C7.19344 8.22219 7.14509 8.43005 7.13963 8.64122C7.13417 8.85239 7.17173 9.06246 7.25002 9.25866C7.3283 9.45486 7.44568 9.63308 7.59501 9.78249L7.58334 9.75332C7.3599 9.52536 7.06857 9.37598 6.75305 9.3276C6.43753 9.27922 6.11482 9.33444 5.83334 9.48499C5.63838 9.59608 5.47167 9.75067 5.34621 9.93671C5.22075 10.1228 5.13992 10.3353 5.11 10.5576C5.08009 10.78 5.1019 11.0063 5.17373 11.2189C5.24557 11.4315 5.3655 11.6247 5.52418 11.7833L7.27418 13.5333C7.14807 13.4074 6.997 13.3092 6.83069 13.2452C6.66438 13.1811 6.48651 13.1526 6.30851 13.1614C6.1305 13.1702 5.95631 13.2161 5.79712 13.2962C5.63793 13.3764 5.49727 13.4889 5.38418 13.6267C5.19099 13.8856 5.09866 14.206 5.12442 14.528C5.15018 14.8501 5.29228 15.1517 5.52418 15.3767L12.8333 22.75C13.3452 23.2643 13.9542 23.6718 14.6249 23.9488C15.2956 24.2257 16.0146 24.3667 16.7402 24.3634C17.4659 24.3602 18.1836 24.2128 18.8518 23.9298C19.52 23.6468 20.1253 23.2339 20.6325 22.715C21.4327 21.8799 22.0528 20.8892 22.4542 19.8044C22.8555 18.7197 23.0297 17.564 22.9658 16.4092L22.75 9.33332C22.7382 9.17445 22.6667 9.02595 22.5498 8.91772C22.4329 8.80948 22.2793 8.74955 22.12 8.74999V8.74999C21.4493 8.74787 20.8039 9.00542 20.3189 9.46867C19.8339 9.93192 19.547 10.5649 19.5183 11.235V11.235Z" stroke="#45413C" stroke-width="0.5" stroke-linecap="round" stroke-linejoin="round"/>
<path d="M7.1983 13.5217L10.7333 17.0508" stroke="#45413C" stroke-width="0.5" stroke-linecap="round" stroke-linejoin="round"/>
<path d="M7.59497 9.78833L12.7925 14.9858" stroke="#45413C" stroke-width="0.5" stroke-linecap="round" stroke-linejoin="round"/>
<path d="M10.78 8.58667L14.9858 12.7983" stroke="#45413C" stroke-width="0.5" stroke-linecap="round" stroke-linejoin="round"/>
<path d="M19.4425 13.1367L17.36 15.2192C17.0346 15.5442 16.7764 15.9302 16.6003 16.3551C16.4242 16.78 16.3335 17.2355 16.3335 17.6954C16.3335 18.1554 16.4242 18.6108 16.6003 19.0357C16.7764 19.4606 17.0346 19.8466 17.36 20.1717V20.1717" stroke="#45413C" stroke-width="0.5" stroke-linecap="round" stroke-linejoin="round"/>
<path d="M14.0641 5.10999C14.9911 5.26828 15.859 5.67102 16.5783 6.27665C17.2911 6.90966 17.8328 7.71217 18.1533 8.60999" stroke="#45413C" stroke-width="0.5" stroke-linecap="round" stroke-linejoin="round"/>
<path d="M14.3967 3.55249C15.539 3.73627 16.6108 4.22385 17.5 4.96416C18.3817 5.74182 19.0503 6.73168 19.4425 7.83999" stroke="#45413C" stroke-width="0.5" stroke-linecap="round" stroke-linejoin="round"/>
<path d="M2.7125 14.14C2.62013 15.0729 2.77925 16.0135 3.17333 16.8642C3.60071 17.715 4.23694 18.4436 5.0225 18.9817" stroke="#45413C" stroke-width="0.5" stroke-linecap="round" stroke-linejoin="round"/>
<path d="M1.11999 14.0583C1.00878 15.2123 1.21028 16.3749 1.70333 17.4242C2.23151 18.4749 3.01593 19.3757 3.98416 20.0433" stroke="#45413C" stroke-width="0.5" stroke-linecap="round" stroke-linejoin="round"/>
</svg>
